<?xml version="1.0" encoding="UTF-8" standalone="no"?>
<!-- Created with Inkscape (http://www.inkscape.org/) -->

<svg
   xmlns:dc="http://purl.org/dc/elements/1.1/"
   xmlns:cc="http://creativecommons.org/ns#"
   xmlns:rdf="http://www.w3.org/1999/02/22-rdf-syntax-ns#"
   xmlns:svg="http://www.w3.org/2000/svg"
   xmlns="http://www.w3.org/2000/svg"
   version="1.1"
   width="744.09448"
   height="1052.3622"
   id="svg2">
  <defs
     id="defs4" />
  <metadata
     id="metadata7">
    <rdf:RDF>
      <cc:Work
         rdf:about="">
        <dc:format>image/svg+xml</dc:format>
        <dc:type
           rdf:resource="http://purl.org/dc/dcmitype/StillImage" />
        <dc:title></dc:title>
      </cc:Work>
    </rdf:RDF>
  </metadata>
  <g
     id="layer1">
    <path
       d="m 364.22969,355.6675 c -50.88537,-6.36038 -101.39197,-11.15155 -152.09766,5.75034 -182.799061,60.93301 200.61409,192.13133 293.9544,178.797 283.94794,-40.56399 211.3172,-196.43045 -31.66605,-177.54829 m 0,0 c -6.17164,0.4796 1.83252,1.07193 -4.55587,1.78175"
       id="path2993"
       style="fill:none;stroke:#000000;stroke-width:1px;stroke-linecap:butt;stroke-linejoin:miter;stroke-opacity:1" />
    <path
       d="m 454.56494,352.50843 c -85.41067,-3.87927 -156.98193,-14.63449 -205.96007,-7.52382 -40.54949,7.27292 -87.52307,15.77374 -94.51007,54.35402 -1.39895,7.72465 -5.65309,15.06014 -6.67433,24.01196 -1.41879,12.91936 0.77247,60.54916 12.09735,73.23724 71.32948,79.91561 310.52787,145.78348 364.73836,122.09526 44.6554,-19.51297 175.00042,-52.70409 177.45247,-146.12423 0.69222,-26.37281 0.46968,-65.70503 -42.11004,-90.48123 -59.65016,-34.70911 -134.67681,-35.7109 -205.03367,-29.5692 z"
       id="path3026"
       style="fill:none;stroke:#000000;stroke-width:1.07863164px;stroke-linecap:butt;stroke-linejoin:miter;stroke-opacity:1" />
    <path
       d="m 644.28571,413.79075 c -28.15798,-4.59406 -36.23297,-19.96114 -64.18007,-4.4321 -34.07319,18.93305 -38.97587,21.80932 -23.99201,35.55411 21.54295,19.7615 122.89407,10.89788 88.17208,-31.12201 z"
       id="path3028"
       style="fill:none;stroke:#000000;stroke-width:1px;stroke-linecap:butt;stroke-linejoin:miter;stroke-opacity:1" />
    <path
       d="m 365.71429,355.21933 c -12.87239,14.83387 -4.63763,15.29435 -12.81133,24.70559 -11.40374,9.11048 -22.58671,18.71429 -32.23059,29.67455 -4.63613,9.49865 -12.8911,15.57689 -21.26433,21.26765 -5.79488,8.51437 -12.91011,15.74174 -19.50524,23.58958 -2.13641,2.59232 -11.3228,12.55952 -3.1327,7.4234 7.93974,-3.20138 14.85887,-8.46974 19.47339,-15.71697 4.93821,-6.11663 11.19551,-11.49705 18.78973,-13.9102 7.97785,-8.19352 20.9899,-7.38285 29.25538,-15.18905 8.33227,-6.63166 19.9743,-7.91787 26.80878,-16.57067 5.8226,-9.36664 25.29237,-7.89628 34.05545,-13.20685 12.13644,-8.74054 18.81654,-9.54667 34.53318,-8.29088 10.47131,0.50943 20.43197,-8.97838 30.09468,-13.84356 l 0.23767,-0.60359 L 470,363.79075"
       id="path3047"
       style="fill:none;stroke:#000000;stroke-width:1px;stroke-linecap:butt;stroke-linejoin:miter;stroke-opacity:1" />
    <path
       d="m 541.42857,446.6479 c -1.57706,-0.45799 6.9169,-4.68147 4.49097,-2.9988 -23.30837,12.99296 -25.55543,12.43868 -39.56222,15.35599 -11.40313,3.69323 -20.58026,13.62009 -33.21116,13.49867 -7.9561,-0.0159 -15.92126,-0.005 -23.86758,-0.0873 -8.64215,-1.37274 -17.33904,-1.65979 -26.07522,-1.44365 -8.79423,0.16602 -17.70637,-0.7032 -26.42605,0.34716 -10.0322,2.74154 -21.16625,1.66123 -30.95382,5.08852 -3.77077,0.3193 -10.48089,8.10914 -14.40737,11.05279 -1.14133,0.85565 17.94924,-7.43546 16.59758,-4.96759 7.73739,-3.0639 11.38699,-1.38043 18.35814,-3.86175 12.63705,-2.57202 27.78267,4.36264 40.41329,1.71342 7.41089,-1.28041 14.73302,-3.60182 22.34682,-2.48551 7.67288,0.71231 15.33654,1.8088 23.05098,1.7178 4.19852,0.4969 10.74938,-0.99438 15.3361,-0.31364 -1.66,2.91194 -1.73003,10.42831 -1.61849,14.21963 0.25656,8.72109 1.47386,17.7756 9.56297,17.99422 15.66124,-0.55698 31.34273,-0.74369 47.00119,-0.30606 0.69161,-1.63188 7.80541,-1.5427 6.95326,-2.29737 -0.80505,-0.71295 -6.72371,-3.59287 -9.60765,-2.41493 -10.06044,-0.78398 -20.74585,-0.23999 -30.11398,-4.48759 -7.03744,-5.44937 -6.03098,-12.94692 -4.08677,-21.39938 -0.74852,-7.13754 7.08576,-11.052 12.54638,-13.59561 7.30648,-1.9233 14.54823,-4.4247 17.81423,-12.06077 1.76887,-2.78789 3.41122,-5.66866 5.4584,-8.26825 z"
       id="path3067"
       style="fill:none;stroke:#000000;stroke-width:1px;stroke-linecap:butt;stroke-linejoin:miter;stroke-opacity:1" />
    <path
       d="m 628.13836,417.25651 c -20.06046,-3.42771 -25.81329,-14.89339 -45.72351,-3.30687 -24.2746,14.12632 -27.76739,16.27236 -17.09251,26.52762 15.34774,14.74444 87.55285,8.13111 62.81602,-23.22075 z"
       id="path3028-7"
       style="fill:none;stroke:#000000;stroke-width:0.72907782px;stroke-linecap:butt;stroke-linejoin:miter;stroke-opacity:1" />
    <path
       d="m 152.85714,396.6479 c -1.56181,15.23651 4.80283,32.13047 13.37765,40.92083 7.30988,7.49361 16.22595,7.14616 23.2069,16.04647 24.27826,23.98212 63.64357,35.39718 93.51005,50.3048 33.22826,11.39413 67.42076,27.01299 101.25487,36.17206 27.57942,6.89669 53.99147,8.10133 82.53834,10.91707 31.36405,3.80884 65.20123,0.57483 96.48489,-5.26162 20.8278,-7.17218 37.89632,-12.47245 58.38929,-20.58946 18.55162,-7.74361 33.97254,-20.75528 51.03914,-30.92509"
       id="path3094"
       style="fill:none;stroke:#000000;stroke-width:1px;stroke-linecap:butt;stroke-linejoin:miter;stroke-opacity:1" />
  </g>
</svg>
