<?xml version="1.0" encoding="UTF-8" standalone="no"?>
<!-- Created with Inkscape (http://www.inkscape.org/) -->

<svg
   xmlns:dc="http://purl.org/dc/elements/1.1/"
   xmlns:cc="http://creativecommons.org/ns#"
   xmlns:rdf="http://www.w3.org/1999/02/22-rdf-syntax-ns#"
   xmlns:svg="http://www.w3.org/2000/svg"
   xmlns="http://www.w3.org/2000/svg"
   version="1.1"
   width="744.09448"
   height="1052.3622"
   id="svg2">
  <defs
     id="defs4" />
  <metadata
     id="metadata7">
    <rdf:RDF>
      <cc:Work
         rdf:about="">
        <dc:format>image/svg+xml</dc:format>
        <dc:type
           rdf:resource="http://purl.org/dc/dcmitype/StillImage" />
        <dc:title></dc:title>
      </cc:Work>
    </rdf:RDF>
  </metadata>
  <g
     id="layer1">
    <path
       d="m 245.73132,644.4655 c 3.83717,46.0182 14.30733,91.09213 27.81751,125.69083 51.48325,131.84535 144.05889,183.01232 198.78715,64.76943"
       id="path2985"
       style="fill:none;stroke:#000000;stroke-width:1.50673604px;stroke-linecap:butt;stroke-linejoin:miter;stroke-opacity:1" />
    <path
       d="M 468.96169,838.62127 C 397.05095,756.45536 408.59896,649.35989 380.87293,557.11104"
       id="path2987"
       style="fill:none;stroke:#000000;stroke-width:1.50673604px;stroke-linecap:butt;stroke-linejoin:miter;stroke-opacity:1" />
    <path
       d="m 244.83713,555.03347 c 45.37099,-1.11549 90.88212,-0.39792 136.0358,4.15513 -47.16903,12.51572 -89.37121,39.20389 -120.9998,73.94558 -24.1082,24.737 -52.00933,45.85777 -77.39135,69.37751 -8.86885,8.33444 -16.33632,17.83174 -23.03735,27.72967 -5.79566,0.51025 0.33082,-13.07794 0.39993,-17.38819 10.41075,-40.90132 25.23689,-80.6917 39.90444,-120.38772 2.98652,-8.043 9.18789,-14.30963 15.87038,-19.84398 6.80899,-9.54538 18.12729,-13.81568 29.21795,-17.588 z"
       id="path2989"
       style="fill:none;stroke:#000000;stroke-width:1.50673604px;stroke-linecap:butt;stroke-linejoin:miter;stroke-opacity:1" />
    <path
       d="m 406.51902,690.07528 c 27.15977,-139.3959 78.11091,-270.24452 126.00038,-404.08664 1.7387,-4.85935 6.80373,-42.59011 12.26552,-42.59011 49.0252,0 -7.69574,373.97312 -46.98573,534.70414 -8.79345,35.97313 -24.12816,52.38405 -28.8375,61.55739"
       id="path2992"
       style="fill:none;stroke:#000000;stroke-width:1.50673604px;stroke-linecap:butt;stroke-linejoin:miter;stroke-opacity:1" />
    <path
       d="M 240.141,496.6944 C 222.63409,416.81388 149.03393,348.9912 124.17545,339.73068 c -25.382378,-9.45569 11.76342,-4.91923 25.88264,-4.91923 40.62768,0 89.78348,23.29131 117.08,39.47376"
       id="path2994"
       style="fill:none;stroke:#000000;stroke-width:1.50673604px;stroke-linecap:butt;stroke-linejoin:miter;stroke-opacity:1" />
    <path
       d="m 505.75826,364.93616 c -1.29252,-3.61237 20.23637,-25.22852 -7.80533,-21.81444 5.60029,-15.65176 20.56511,-14.93565 -2.2301,-30.12472 4.96245,-12.32811 22.37839,-15.43125 -3.34514,-29.08593 5.04828,-14.10901 23.6234,-16.25627 -10.03543,-23.89201 5.4548,-15.24515 23.2437,-19.59943 -8.92039,-28.04715 8.95178,-13.10493 35.11393,-24.67061 -12.26552,-27.00835 11.73993,-19.35002 26.73531,-28.24455 -10.03542,-33.24107 -11.73685,-9.78314 2.54029,-37.02933 -21.18591,-10.38782 -12.2256,-5.44713 -5.01102,-36.50395 -32.33637,-1.03879 -14.09693,-22.22466 -22.38173,-33.46006 -30.10629,3.11635 -13.56995,-2.52837 -37.28645,-21.50056 -23.416,19.73688 -20.70633,-2.96771 -56.03988,-9.04268 -28.99124,22.85322 -22.68309,7.92439 -36.02518,8.57401 -14.49561,32.20229 -16.06331,16.72519 -27.24152,5.80388 -3.34515,22.85322 -1.18805,4.24272 -38.97316,6.85533 -6.69027,23.89202 -18.24052,15.20421 -29.08995,5.85564 -7.80534,29.08593 -14.88239,17.33063 -23.3602,12.33399 -3.34514,34.27983 -29.21134,13.01511 -32.27659,11.86502 -8.92039,28.04715 -13.76759,14.33489 -30.58101,8.98146 -4.46019,29.08593 -17.27343,14.39812 -33.65879,7.13942 -5.57524,29.08593 -9.70658,12.65978 -27.4686,8.95441 -7.80533,32.20228 0,4.04193 -20.11459,24.44191 0,27.00835 -34.12335,1.28599 -1.92223,14.32612 -2.23009,16.62054 -37.13689,7.22768 2.13955,20.92848 2.23009,21.81445 -38.78384,5.09527 -0.90667,14.35919 -1.11504,17.6593 -24.10906,-5.05289 -18.56501,14.41272 -20.07087,15.58176"
       id="path3000"
       style="fill:none;stroke:#000000;stroke-width:1.50673604px;stroke-linecap:butt;stroke-linejoin:miter;stroke-opacity:1" />
  </g>
</svg>
