<?xml version="1.0" encoding="UTF-8" standalone="no"?>
<!-- Created with Inkscape (http://www.inkscape.org/) -->

<svg
   xmlns:dc="http://purl.org/dc/elements/1.1/"
   xmlns:cc="http://creativecommons.org/ns#"
   xmlns:rdf="http://www.w3.org/1999/02/22-rdf-syntax-ns#"
   xmlns:svg="http://www.w3.org/2000/svg"
   xmlns="http://www.w3.org/2000/svg"
   version="1.1"
   width="744.09448"
   height="1052.3622"
   id="svg2">
  <defs
     id="defs4" />
  <metadata
     id="metadata7">
    <rdf:RDF>
      <cc:Work
         rdf:about="">
        <dc:format>image/svg+xml</dc:format>
        <dc:type
           rdf:resource="http://purl.org/dc/dcmitype/StillImage" />
        <dc:title></dc:title>
      </cc:Work>
    </rdf:RDF>
  </metadata>
  <g
     id="layer1">
    <path
       d="m 399.62152,538.07647 c -1.05546,44.61217 -2.85714,88.04002 -2.85714,132.85714 72.13819,-8.63812 151.15154,-1.42857 227.14286,-1.42857 -2.92646,-45.96664 -5.22945,-89.76058 -10,-134.28571"
       id="path3081"
       style="fill:none;stroke:#000000;stroke-width:1px;stroke-linecap:butt;stroke-linejoin:miter;stroke-opacity:1" />
    <path
       d="m 626.76438,668.07647 c 29.61206,-9.27879 64.71456,-22.18142 91.42857,-31.42857 -1.88158,-36.08284 -6.50179,-74.75539 -10,-108.57143"
       id="path3083"
       style="fill:none;stroke:#000000;stroke-width:1px;stroke-linecap:butt;stroke-linejoin:miter;stroke-opacity:1" />
    <path
       d="m 613.90724,538.07647 c 34.35803,2.48214 69.74947,-3.78169 100,-7.14286"
       id="path3089"
       style="fill:none;stroke:#000000;stroke-width:1px;stroke-linecap:butt;stroke-linejoin:miter;stroke-opacity:1" />
    <path
       d="m 361.05009,556.6479 c 45.13661,-23.10175 94.06228,-36.88349 140,-56.42857 1.42857,-14.04762 1.42857,-27.38096 1.42857,-40.71429 18.45307,0 33.929,0 45.71429,0 1.1097,14.89155 -1.85915,26.02808 -2.85714,40 59.20749,43.43729 71.34858,27.20291 105.71428,65.71429"
       id="path3091"
       style="fill:none;stroke:#000000;stroke-width:1px;stroke-linecap:butt;stroke-linejoin:miter;stroke-opacity:1" />
    <path
       d="m 501.05009,456.6479 c 29.51491,-0.53623 60.94663,-9.93894 81.96428,-14.10715 19.34593,1.25 34.82186,1.25 46.60715,1.25 1.1097,14.89155 -1.85915,26.02808 -2.85714,40 59.20749,43.43729 71.34858,27.20291 105.71428,65.71429"
       id="path3174"
       style="fill:none;stroke:#000000;stroke-width:1px;stroke-linecap:butt;stroke-linejoin:miter;stroke-opacity:1" />
    <path
       d="m 544.8001,458.61219 c 29.51491,-0.53623 60.94663,-9.93894 81.07143,-15.35715"
       id="path3174-5"
       style="fill:none;stroke:#000000;stroke-width:1px;stroke-linecap:butt;stroke-linejoin:miter;stroke-opacity:1" />
    <path
       d="m 467.62152,662.36218 c 0,-32.85714 0,-65.71428 0,-98.57143 22.32832,5.64518 51.54738,2.18964 72.85715,1.42858 -10e-6,34.28571 0,68.57143 0,102.85714"
       id="path3196"
       style="fill:none;stroke:#000000;stroke-width:1px;stroke-linecap:butt;stroke-linejoin:miter;stroke-opacity:1" />
    <path
       d="m 424.91739,564.28096 c 0,32.38095 -1.01015,72.84313 -1.01015,105.22408"
       id="path3198"
       style="fill:none;stroke:#000000;stroke-width:1px;stroke-linecap:butt;stroke-linejoin:miter;stroke-opacity:1" />
    <path
       d="m 423.90724,565.21933 c 11.78739,1.47857 33.69403,-1.06282 43.20377,-1.42858"
       id="path3200"
       style="fill:none;stroke:#000000;stroke-width:1px;stroke-linecap:butt;stroke-linejoin:miter;stroke-opacity:1" />
    <path
       d="m 425.23428,574.74865 c 14.92383,24.75158 25.10801,66.72508 36.37781,89.26469"
       id="path3208"
       style="fill:none;stroke:#000000;stroke-width:1px;stroke-linecap:butt;stroke-linejoin:miter;stroke-opacity:1" />
    <path
       d="m 431.61209,566.42233 c 9.15391,29.19942 23.04287,70.57549 37.97969,93.47861"
       id="path3210"
       style="fill:none;stroke:#000000;stroke-width:1px;stroke-linecap:butt;stroke-linejoin:miter;stroke-opacity:1" />
    <path
       d="m 427.8735,668.21495 c 5.3901,-26.04566 23.8986,-80.90614 42.88944,-97.41992"
       id="path3216"
       style="fill:none;stroke:#000000;stroke-width:1px;stroke-linecap:butt;stroke-linejoin:miter;stroke-opacity:1" />
    <path
       d="m 419.97847,666.09095 c 5.3901,-26.04566 23.8986,-80.90613 42.88943,-97.41992"
       id="path3216-3"
       style="fill:none;stroke:#000000;stroke-width:1px;stroke-linecap:butt;stroke-linejoin:miter;stroke-opacity:1" />
    <path
       d="m 543.21181,565.62966 c 0,32.38095 -1.01015,72.84313 -1.01015,105.22408"
       id="path3198-5"
       style="fill:none;stroke:#000000;stroke-width:1px;stroke-linecap:butt;stroke-linejoin:miter;stroke-opacity:1" />
    <path
       d="m 542.20166,566.56803 c 11.78739,1.47857 33.69403,-1.06282 43.20377,-1.42858"
       id="path3200-6"
       style="fill:none;stroke:#000000;stroke-width:1px;stroke-linecap:butt;stroke-linejoin:miter;stroke-opacity:1" />
    <path
       d="m 543.5287,576.09735 c 14.92383,24.75158 25.10801,66.72508 36.37781,89.26469"
       id="path3208-2"
       style="fill:none;stroke:#000000;stroke-width:1px;stroke-linecap:butt;stroke-linejoin:miter;stroke-opacity:1" />
    <path
       d="m 549.90651,567.77103 c 9.15391,29.19942 23.04287,70.57549 37.97969,93.47861"
       id="path3210-9"
       style="fill:none;stroke:#000000;stroke-width:1px;stroke-linecap:butt;stroke-linejoin:miter;stroke-opacity:1" />
    <path
       d="m 546.16792,669.56365 c 5.3901,-26.04566 23.8986,-80.90614 42.88944,-97.41992"
       id="path3216-1"
       style="fill:none;stroke:#000000;stroke-width:1px;stroke-linecap:butt;stroke-linejoin:miter;stroke-opacity:1" />
    <path
       d="m 538.27289,667.43965 c 5.3901,-26.04566 23.8986,-80.90613 42.88943,-97.41992"
       id="path3216-3-2"
       style="fill:none;stroke:#000000;stroke-width:1px;stroke-linecap:butt;stroke-linejoin:miter;stroke-opacity:1" />
    <path
       d="m 589.40143,567.8983 c 0,32.38095 -1.01015,72.84313 -1.01015,105.22408"
       id="path3198-7"
       style="fill:none;stroke:#000000;stroke-width:1px;stroke-linecap:butt;stroke-linejoin:miter;stroke-opacity:1" />
    <path
       d="M -2.0203051,668.50422 C 126.24279,614.17778 263.09945,625.12491 398.46104,616.893 c 0,0 0,0 0,0"
       id="path3291"
       style="fill:none;stroke:#000000;stroke-width:0.96909404px;stroke-linecap:butt;stroke-linejoin:miter;stroke-opacity:1" />
    <path
       d="m 717.20831,605.87476 c 16.46717,0.33308 27.05462,6.76365 40.4061,10.10152"
       id="path3293"
       style="fill:none;stroke:#000000;stroke-width:1px;stroke-linecap:butt;stroke-linejoin:miter;stroke-opacity:1" />
    <path
       d="m 0,749.31642 c 91.999071,-30.86062 189.93912,-36.36549 286.88332,-36.36549 41.34184,117.60708 119.71844,230.02243 157.5838,339.41127"
       id="path3297"
       style="fill:none;stroke:#000000;stroke-width:1px;stroke-linecap:butt;stroke-linejoin:miter;stroke-opacity:1" />
    <path
       d="m 238.396,719.01184 c 48.04318,112.61302 86.94886,234.59104 123.23861,347.49246"
       id="path3299"
       style="fill:none;stroke:#000000;stroke-width:1px;stroke-linecap:butt;stroke-linejoin:miter;stroke-opacity:1" />
    <path
       d="m 159.6041,721.03215 c 29.30739,100.35717 94.27782,209.42595 117.1777,301.02545"
       id="path3301"
       style="fill:none;stroke:#000000;stroke-width:1px;stroke-linecap:butt;stroke-linejoin:miter;stroke-opacity:1" />
    <path
       d="m 101.01525,725.07276 c 13.43788,119.29439 71.26808,232.62401 98.99495,347.49244"
       id="path3303"
       style="fill:none;stroke:#000000;stroke-width:1px;stroke-linecap:butt;stroke-linejoin:miter;stroke-opacity:1" />
    <path
       d="M 46.467017,737.19459 C 75.025938,833.0572 118.38167,937.57193 139.40105,1032.1591"
       id="path3305"
       style="fill:none;stroke:#000000;stroke-width:1px;stroke-linecap:butt;stroke-linejoin:miter;stroke-opacity:1" />
    <path
       d="m 290.92393,712.95093 c 159.29702,-16.7735 331.34647,1.40309 468.71078,38.38579"
       id="path3307"
       style="fill:none;stroke:#000000;stroke-width:1px;stroke-linecap:butt;stroke-linejoin:miter;stroke-opacity:1" />
    <path
       d="M 743.47227,761.43825 C 613.03971,758.47143 484.83042,800.05518 398.0001,878.61594"
       id="path3311"
       style="fill:none;stroke:#000000;stroke-width:1px;stroke-linecap:butt;stroke-linejoin:miter;stroke-opacity:1" />
    <path
       d="M 598.01031,725.07276 C 506.72613,738.42641 411.09664,775.07995 355.5737,820.0271"
       id="path3313"
       style="fill:none;stroke:#000000;stroke-width:1px;stroke-linecap:butt;stroke-linejoin:miter;stroke-opacity:1" />
    <path
       d="m 525.27932,729.00306 c -75.11897,-5.85504 -141.92001,27.45138 -197.9899,72.84129"
       id="path3315"
       style="fill:none;stroke:#000000;stroke-width:1px;stroke-linecap:butt;stroke-linejoin:miter;stroke-opacity:1" />
    <path
       d="M 745.49258,791.74283 C 631.88336,800.41061 493.25778,842.0859 434.36559,923.06266"
       id="path3317"
       style="fill:none;stroke:#000000;stroke-width:1px;stroke-linecap:butt;stroke-linejoin:miter;stroke-opacity:1" />
    <path
       d="M 735.39105,838.20984 C 643.45301,876.8812 567.90674,924.14678 523.25902,1003.8749"
       id="path3319"
       style="fill:none;stroke:#000000;stroke-width:1px;stroke-linecap:butt;stroke-linejoin:miter;stroke-opacity:1" />
    <path
       d="m 719.22861,937.20479 c -84.67054,46.6603 -165.72176,82.12651 -212.13203,165.66501"
       id="path3321"
       style="fill:none;stroke:#000000;stroke-width:1px;stroke-linecap:butt;stroke-linejoin:miter;stroke-opacity:1" />
    <path
       d="m 72.730983,573.54988 c 6.690076,24.65336 4.04061,52.63878 4.04061,78.79189"
       id="path3323"
       style="fill:none;stroke:#000000;stroke-width:1px;stroke-linecap:butt;stroke-linejoin:miter;stroke-opacity:1" />
    <path
       d="m 96.974644,575.57018 c 0,27.61084 0,55.22167 0,82.83251"
       id="path3327"
       style="fill:none;stroke:#000000;stroke-width:1px;stroke-linecap:butt;stroke-linejoin:miter;stroke-opacity:1" />
    <path
       d="m 71.428572,560.93361 c 0,0.95238 0.95238,2.85714 0,2.85714 -0.952381,0 0,-3.80952 0,-2.85714 0,0.61452 -0.770165,9.22984 0,10 0.289829,0.28983 2.835428,1.40686 2.857142,1.42857 0.570888,0.57089 0.794102,2.18277 2.142858,2.85714 4.06004,2.03003 7.865287,2.85715 12.857142,2.85715 0.857952,0 2.82036,0.37553 3.571429,0 2.972686,-1.48635 -0.763597,0.0493 0.714286,-1.42857 0.479555,-0.47956 2.291896,-1.72665 2.857143,-2.85715 0.929015,-1.85803 0.115908,-3.68733 1.428571,-5 0.714286,-0.71428 -0.714286,-3.57143 0,-4.28571 0.955088,-0.95509 0.178852,9.46457 0.714286,10 0.858391,0.85839 2.427821,0.42838 3.571431,0.71428 1.29281,-0.43052 1.32844,1.15711 2.14285,1.42858 1.28572,0.42857 3,-0.42858 4.28572,0 4.49913,1.49971 12.64929,1.12999 15,-3.57143 1.07824,-2.15649 1.90291,-12.3828 0,-14.28572 -1.21819,-1.21819 -5,-0.26721 -5,-0.71428 0,-1.34655 2.26778,2.26778 3.57143,3.57143 0.7062,0.70619 1.50349,2.2927 2.14285,3.57142 0.91755,1.83511 8.99077,0.71429 10.71429,0.71429 1.77304,0 4.73709,0.56383 6.42857,0 2.70358,-0.90119 2.90435,-2.88861 5,-4.28571 1.41188,-0.94125 1.74943,-0.16043 2.85714,-0.71429 1.39196,-0.69598 4.28572,-9.19876 4.28572,-11.42857 0,-0.7934 0.50508,-4.49492 0,-5 -0.73268,-0.73268 -3.30644,0.48964 -4.28572,0 -1.7141,-0.85705 -3.75031,-1.51801 -5,-2.14286 -0.20412,-0.10206 -2.14285,-1.14815 -2.14285,-1.42857 0,-0.47619 0.95238,0 1.42857,0 1.90476,0 3.80952,0 5.71428,0 4.99496,0 8.44004,-1.38477 12.85715,-2.85714 4.1196,-1.3732 6.84756,-12.73345 5,-16.42857 -0.87797,-1.75593 -16.92156,-1.20728 -17.85715,-2.14286 -0.64665,-0.64665 0.18869,-17.7628 0,-17.85714 -0.66888,-0.33445 -15.89957,-0.2645 -16.42857,0 -1.18353,0.59176 -4.98596,9.29975 -6.42857,7.85714 -0.65123,-0.65123 0,-6.39798 0,-7.14286 0,-0.89777 0.61046,-5.81811 0,-6.42857 -1.8509,-1.8509 -9.66786,-4.65119 -12.85714,-5.71429 -0.67756,-0.22585 -5.99188,-0.43668 -6.42857,0 -0.2473,0.24731 -4.56808,7.70759 -5,8.57143 -0.6116,1.22319 -1.47898,2.19327 -2.14286,2.85715 -0.336717,0.33671 0,1.90476 0,1.42857 0,-15.53059 -1.168812,-15.71429 -15.714286,-15.71429 -1.10372,0 -7.071328,-0.78581 -7.857142,0 -2.807246,2.80725 -5.989487,10.11132 -7.142858,13.57143 -0.179016,0.53705 -0.332828,4.61854 -0.714285,5 -1.444085,1.44409 -5.432897,-8.29004 -6.428572,-9.28571 -0.763658,-0.76366 -11.822061,-0.97306 -12.857143,-0.71429 -1.960204,0.49005 -8.373965,2.46222 -9.285714,4.28571 -0.213111,0.42623 -1.839959,13.16005 -1.428571,13.57143 0.595238,0.59524 2.97619,-0.59523 3.571428,0 2.225631,2.22563 4.300749,5.70677 2.857143,6.42857 -1.523809,0.76191 -4.190476,-0.7619 -5.714286,0 -3.00146,1.50073 -4.708575,4.70858 -7.142857,7.14286 -2.073724,2.07373 -8.806724,5.47059 -10,7.85714 -0.375534,0.75107 0,2.71348 0,3.57143 0,7.83126 5.329396,11.15378 12.142857,12.85715 5.018704,1.25467 11.963774,0 17.142857,0 2.258769,0 3.289756,-2.70621 3.571429,-2.14286 3.652892,7.30578 -13.305944,14.1024 -10,20.71428 1.378981,2.75797 9.467867,1.42858 12.142857,1.42858 1.942365,0 9.814335,2.32852 11.428572,0.71428 2.227489,-2.22749 1.423709,-7.84499 2.857143,-11.42857 z"
       id="path3337"
       style="fill:none;stroke:#000000;stroke-width:1px;stroke-linecap:butt;stroke-linejoin:miter;stroke-opacity:1" />
  </g>
</svg>
